<svg width="40.000000" height="40.000000" viewBox="0 0 40 40" fill="none" xmlns="http://www.w3.org/2000/svg" xmlns:xlink="http://www.w3.org/1999/xlink">
	<desc>
			Created with Pixso.
	</desc>
	<defs/>
	<path id="Vector" d="M20.5 7C13.6 7 8 12.83 8 20L8 25.38C8 26.71 9.12 27.8 10.5 27.8L11.75 27.8C12.08 27.8 12.39 27.66 12.63 27.41C12.86 27.17 13 26.84 13 26.5L13 19.81C13 19.46 12.86 19.13 12.63 18.89C12.39 18.65 12.08 18.51 11.75 18.51L10.61 18.51C11.31 13.48 15.47 9.59 20.5 9.59C25.52 9.59 29.68 13.48 30.38 18.51L29.25 18.51C28.91 18.51 28.6 18.65 28.36 18.89C28.13 19.13 28 19.46 28 19.81L28 27.8C28 29.23 26.87 30.4 25.5 30.4L23 30.4L23 29.1L18 29.1L18 33L25.5 33C28.25 33 30.5 30.66 30.5 27.8C31.87 27.8 33 26.71 33 25.38L33 20C33 12.83 27.39 7 20.5 7Z" fill="#6E6E6E" fill-opacity="1.000000" fill-rule="nonzero"/>
	<circle id="Ellipse 17" cx="20.000000" cy="20.000000" r="20.000000" fill="#D9D9D9" fill-opacity="0"/>
	<circle id="Ellipse 17" cx="20.000000" cy="20.000000" r="19.750000" stroke="#7A7777" stroke-opacity="1.000000" stroke-width="0.500000"/>
</svg>
