<svg width="40.000000" height="40.000000" viewBox="0 0 40 40" fill="none" xmlns="http://www.w3.org/2000/svg" xmlns:xlink="http://www.w3.org/1999/xlink">
	<desc>
			Created with Pixso.
	</desc>
	<defs/>
	<circle id="Ellipse 18" cx="20.000000" cy="20.000000" r="20.000000" fill="#D9D9D9" fill-opacity="0"/>
	<circle id="Ellipse 18" cx="20.000000" cy="20.000000" r="19.750000" stroke="#7A7777" stroke-opacity="1.000000" stroke-width="0.500000"/>
	<path id="Vector" d="M30.25 25.37C29.47 24.58 28.56 23.95 27.55 23.48C28.97 22.33 29.87 20.58 29.87 18.62C29.87 15.16 26.98 12.32 23.52 12.37C20.11 12.42 17.36 15.2 17.36 18.62C17.36 20.58 18.27 22.33 19.68 23.48C18.68 23.95 17.76 24.58 16.98 25.37C15.28 27.08 14.31 29.33 14.25 31.74C14.24 31.77 14.25 31.81 14.26 31.84C14.27 31.87 14.29 31.9 14.32 31.92C14.34 31.94 14.37 31.96 14.4 31.98C14.43 31.99 14.46 32 14.5 32L16.25 32C16.38 32 16.49 31.89 16.5 31.75C16.55 29.94 17.29 28.25 18.58 26.96C19.24 26.29 20.03 25.77 20.89 25.41C21.76 25.05 22.68 24.87 23.62 24.87C25.52 24.87 27.31 25.61 28.66 26.96C29.95 28.25 30.68 29.94 30.75 31.75C30.75 31.89 30.86 32 31 32L32.75 32C32.78 32 32.81 31.99 32.84 31.98C32.87 31.96 32.9 31.94 32.92 31.92C32.95 31.9 32.97 31.87 32.98 31.84C32.99 31.81 33 31.77 33 31.74C32.93 29.33 31.96 27.08 30.25 25.37ZM23.62 22.62C22.55 22.62 21.55 22.2 20.79 21.45C20.41 21.07 20.12 20.63 19.91 20.13C19.71 19.64 19.61 19.11 19.62 18.58C19.63 17.55 20.04 16.56 20.75 15.83C21.5 15.06 22.51 14.63 23.58 14.62C24.64 14.61 25.67 15.02 26.42 15.76C27.2 16.52 27.62 17.54 27.62 18.62C27.62 19.69 27.21 20.69 26.45 21.45C26.08 21.82 25.64 22.12 25.15 22.32C24.67 22.52 24.15 22.62 23.62 22.62ZM15.79 19.45C15.76 19.17 15.75 18.9 15.75 18.62C15.75 18.12 15.8 17.64 15.88 17.17C15.9 17.05 15.85 16.94 15.74 16.89C15.32 16.7 14.93 16.44 14.59 16.11C14.19 15.72 13.88 15.26 13.67 14.74C13.46 14.23 13.36 13.68 13.38 13.13C13.41 12.12 13.81 11.17 14.51 10.45C15.29 9.66 16.32 9.23 17.43 9.24C18.42 9.25 19.39 9.64 20.11 10.32C20.36 10.55 20.57 10.8 20.75 11.08C20.81 11.18 20.94 11.22 21.04 11.18C21.59 10.99 22.17 10.86 22.77 10.79C22.95 10.77 23.05 10.59 22.97 10.43C21.95 8.42 19.88 7.03 17.48 7C14.01 6.94 11.12 9.78 11.12 13.24C11.12 15.2 12.03 16.95 13.44 18.1C12.45 18.56 11.53 19.2 10.74 19.99C9.03 21.7 8.06 23.95 8 26.36C7.99 26.4 8 26.43 8.01 26.46C8.02 26.49 8.04 26.52 8.07 26.54C8.09 26.57 8.12 26.59 8.15 26.6C8.18 26.61 8.21 26.62 8.25 26.62L10 26.62C10.13 26.62 10.25 26.51 10.25 26.38C10.31 24.57 11.04 22.87 12.33 21.58C13.25 20.66 14.38 20.03 15.6 19.72C15.73 19.69 15.81 19.57 15.79 19.45Z" fill="#6E6E6E" fill-opacity="1.000000" fill-rule="nonzero"/>
</svg>
