<svg width="21.939957" height="12.999969" viewBox="0 0 21.94 13" fill="none" xmlns="http://www.w3.org/2000/svg" xmlns:xlink="http://www.w3.org/1999/xlink">
	<desc>
			Created with Pixso.
	</desc>
	<defs/>
	<path id="Vector" d="M0 8.71L0 13L1.2 13L1.2 10.63L4 10.63L20.72 10.63L20.72 13L21.94 13L21.94 7.08C21.94 6.93 21.92 6.78 21.89 6.62C21.83 6.41 21.75 6.19 21.63 5.96C21.42 5.56 21.12 5.27 20.72 5.07L20.72 2.35C20.72 2.25 20.72 2.14 20.7 2.03C20.64 1.5 20.41 1.05 20.02 0.67C19.54 0.22 18.96 0 18.28 0L12.8 0C12.6 0 12.42 0 12.26 0.05C12.06 0.08 11.88 0.16 11.72 0.25C11.42 0.41 11.17 0.63 10.97 0.94C10.76 0.63 10.51 0.41 10.22 0.25C10.06 0.15 9.87 0.08 9.67 0.05C9.51 0.01 9.33 0 9.13 0L3.64 0C3.24 0 2.87 0.07 2.54 0.22C2.32 0.34 2.11 0.49 1.91 0.67C1.69 0.89 1.53 1.12 1.41 1.37C1.32 1.58 1.26 1.8 1.23 2.03C1.21 2.14 1.2 2.24 1.2 2.35L1.2 5.07C1.02 5.17 0.85 5.28 0.7 5.42C0.54 5.58 0.41 5.76 0.3 5.96C0.19 6.19 0.1 6.41 0.04 6.62C0.01 6.78 0 6.93 0 7.08L0 8.71ZM1.2 7.08L1.2 9.44L3.92 9.44L5.2 9.44L16.71 9.44L20.72 9.44L20.72 7.08C20.72 6.92 20.69 6.76 20.64 6.62C20.58 6.5 20.47 6.34 20.37 6.23C20.14 6.01 19.85 5.89 19.5 5.89L2.42 5.89C2.22 5.89 2.03 5.94 1.87 6.02C1.75 6.08 1.65 6.15 1.57 6.23C1.46 6.34 1.38 6.46 1.32 6.58C1.26 6.72 1.2 6.92 1.2 7.08ZM16.79 4.71L19.5 4.71L19.5 2.35C19.5 2.19 19.47 2.03 19.42 1.89C19.36 1.77 19.25 1.62 19.15 1.52C19.05 1.42 18.95 1.35 18.85 1.3C18.68 1.22 18.49 1.17 18.28 1.17L12.8 1.17C12.58 1.17 12.39 1.22 12.23 1.3C12.12 1.35 12.02 1.42 11.93 1.52C11.81 1.62 11.72 1.75 11.66 1.89C11.61 2.03 11.58 2.19 11.58 2.35L11.58 4.71L13.21 4.71L15.58 4.71L16.79 4.71ZM2.42 2.35L2.42 4.71L5.14 4.71L6.42 4.71L7.57 4.71L10.36 4.71L10.36 2.35C10.36 2.19 10.33 2.03 10.27 1.89C10.21 1.77 10.11 1.62 10.01 1.52C9.91 1.42 9.81 1.35 9.69 1.3C9.53 1.22 9.34 1.17 9.13 1.17L3.64 1.17C3.44 1.17 3.25 1.22 3.09 1.3C2.97 1.35 2.87 1.42 2.78 1.52C2.67 1.62 2.6 1.73 2.54 1.86C2.47 2 2.42 2.19 2.42 2.35Z" fill="#CCCCCC" fill-opacity="1.000000" fill-rule="evenodd"/>
</svg>
