<svg width="21.000000" height="21.000000" viewBox="0 0 21 21" fill="none" xmlns="http://www.w3.org/2000/svg" xmlns:xlink="http://www.w3.org/1999/xlink">
	<desc>
			Created with Pixso.
	</desc>
	<defs/>
	<path id="Vector" d="M16.57 15.11L21 19.53L19.53 21L15.11 16.57C13.46 17.89 11.41 18.61 9.3 18.6C4.16 18.6 0 14.43 0 9.3C0 4.16 4.16 0 9.3 0C14.43 0 18.6 4.16 18.6 9.3C18.61 11.41 17.89 13.46 16.57 15.11ZM14.49 14.34C15.81 12.99 16.54 11.18 16.54 9.3C16.54 5.3 13.3 2.06 9.3 2.06C5.3 2.06 2.06 5.3 2.06 9.3C2.06 13.3 5.3 16.54 9.3 16.54C11.18 16.54 12.99 15.81 14.34 14.49L14.49 14.34Z" fill="#FFFFFF" fill-opacity="1.000000" fill-rule="nonzero"/>
</svg>
