<svg width="31.354004" height="24.000000" viewBox="0 0 31.354 24" fill="none" xmlns="http://www.w3.org/2000/svg" xmlns:xlink="http://www.w3.org/1999/xlink">
	<desc>
			Created with Pixso.
	</desc>
	<defs/>
	<path id="Vector" d="M26.12 0C23.81 0 21.94 1.79 21.94 4L19.85 4L19.85 6L26.12 6L26.12 4L24.03 4C24.03 2.8 24.88 2 26.12 2C27.37 2 28.21 2.8 28.21 4L28.21 10L0 10L0 12L1.24 12L2.84 19.59L2.84 19.62C2.96 20.13 3.21 20.6 3.58 20.99C3.94 21.38 4.41 21.67 4.93 21.84L4.18 24L6.27 24L6.95 22L24.39 22L25.08 24L27.17 24L26.42 21.84C27.51 21.52 28.36 20.68 28.61 19.62L28.61 19.59L30.11 12L31.35 12L31.35 10L30.3 10L30.3 4C30.3 1.79 28.43 0 26.12 0ZM3.36 12L28.02 12L26.55 19.21C26.43 19.65 26.04 20 25.5 20L5.94 20C5.38 20 5 19.64 4.89 19.18L3.36 12Z" fill="#CCCCCC" fill-opacity="1.000000" fill-rule="nonzero"/>
</svg>
