<svg width="50.036255" height="47.003540" viewBox="0 0 50.0363 47.0035" fill="none" xmlns="http://www.w3.org/2000/svg" xmlns:xlink="http://www.w3.org/1999/xlink">
	<desc>
			Created with Pixso.
	</desc>
	<defs/>
	<path id="Vector" d="M21.17 18.72L31.39 18.72M26.28 13.94L26.28 23.5M39.21 43.95C39.93 43.28 40.33 42.37 40.33 41.42C40.33 40.46 39.93 39.55 39.21 38.88C38.49 38.21 37.52 37.83 36.5 37.83C35.48 37.83 34.51 38.21 33.79 38.88C33.07 39.55 32.67 40.46 32.67 41.42C32.67 42.37 33.07 43.28 33.79 43.95C34.51 44.62 35.48 45 36.5 45C37.52 45 38.49 44.62 39.21 43.95ZM18.76 43.95C19.48 43.28 19.89 42.37 19.89 41.42C19.89 40.46 19.48 39.55 18.76 38.88C18.05 38.21 17.07 37.83 16.05 37.83C15.04 37.83 14.06 38.21 13.34 38.88C12.62 39.55 12.22 40.46 12.22 41.42C12.22 42.37 12.62 43.28 13.34 43.95C14.06 44.62 15.04 45 16.05 45C17.07 45 18.05 44.62 18.76 43.95ZM3.81 7.73L42.69 7.73C46.22 7.73 48.76 10.77 47.79 13.82L43.56 27.2C42.91 29.25 40.83 30.67 38.47 30.67L15.06 30.67C12.69 30.67 10.61 29.25 9.96 27.2L3.81 7.73L2 2" stroke="#000000" stroke-opacity="1.000000" stroke-width="4.000000" stroke-linejoin="round" stroke-linecap="round"/>
</svg>
