<svg width="52.088379" height="52.638428" viewBox="0 0 52.0884 52.6384" fill="none" xmlns="http://www.w3.org/2000/svg" xmlns:xlink="http://www.w3.org/1999/xlink">
	<desc>
			Created with Pixso.
	</desc>
	<defs/>
	<path id="Vector" d="M2 15.37L25.4 2.17C25.6 2.05 25.82 2 26.04 2C26.26 2 26.48 2.05 26.68 2.17L50.08 15.37" stroke="#040404" stroke-opacity="1.000000" stroke-width="4.000000" stroke-linejoin="round" stroke-linecap="round"/>
	<path id="Vector" d="M45.27 23.51L45.27 45.21C45.27 46.65 44.76 48.03 43.86 49.04C42.96 50.06 41.74 50.63 40.46 50.63L11.62 50.63C10.34 50.63 9.12 50.06 8.22 49.04C7.32 48.03 6.81 46.65 6.81 45.21L6.81 23.51" stroke="#040404" stroke-opacity="1.000000" stroke-width="4.000000" stroke-linejoin="round" stroke-linecap="round"/>
	<path id="Vector" d="M25.71 43.27C25.93 43.44 26.2 43.54 26.48 43.54C26.77 43.54 27.04 43.44 27.26 43.27C29.66 41.4 36.72 35.31 36.72 28.37L36.72 20.87C36.72 20.68 36.66 20.49 36.53 20.35C36.41 20.2 36.24 20.11 36.05 20.09C33.13 19.78 30.32 18.71 27.89 16.98L27 16.35C26.85 16.24 26.67 16.18 26.48 16.18C26.3 16.18 26.12 16.24 25.97 16.35L25.08 16.98C22.65 18.71 19.84 19.78 16.91 20.09C16.73 20.11 16.56 20.2 16.44 20.35C16.31 20.49 16.24 20.68 16.25 20.87L16.25 28.37C16.25 35.31 23.31 41.4 25.71 43.26" stroke="#000000" stroke-opacity="1.000000" stroke-width="4.000000" stroke-linejoin="round" stroke-linecap="round"/>
</svg>
