<svg width="52.088379" height="52.638428" viewBox="0 0 52.0884 52.6384" fill="none" xmlns="http://www.w3.org/2000/svg" xmlns:xlink="http://www.w3.org/1999/xlink">
	<desc>
			Created with Pixso.
	</desc>
	<defs/>
	<path id="Vector" d="M30.85 20.37C28.44 17.87 22.03 17.04 22.03 22.05C22.03 27.05 30.85 24.55 30.85 29.55C30.85 34.56 23.64 34.56 21.23 31.22M26.04 33.55L26.04 37.07M26.04 18.39L26.04 15.37M2 15.37L25.4 2.17C25.6 2.05 25.82 2 26.04 2C26.26 2 26.48 2.05 26.68 2.17L50.08 15.37" stroke="#040404" stroke-opacity="1.000000" stroke-width="4.000000" stroke-linejoin="round" stroke-linecap="round"/>
	<path id="Vector" d="M45.27 23.51L45.27 45.21C45.27 46.65 44.76 48.03 43.86 49.04C42.96 50.06 41.74 50.63 40.46 50.63L11.62 50.63C10.34 50.63 9.12 50.06 8.22 49.04C7.32 48.03 6.81 46.65 6.81 45.21L6.81 23.51" stroke="#040404" stroke-opacity="1.000000" stroke-width="4.000000" stroke-linejoin="round" stroke-linecap="round"/>
</svg>
