<svg width="52.000000" height="43.000000" viewBox="0 0 52 43" fill="none" xmlns="http://www.w3.org/2000/svg" xmlns:xlink="http://www.w3.org/1999/xlink">
	<desc>
			Created with Pixso.
	</desc>
	<defs/>
	<path id="Vector" d="M50.16 14.72C53.27 12.15 51.85 9.15 50.16 7.69L42.69 1.52C39.56 -1.06 35.95 0.12 34.18 1.52L29.95 5.03L23.51 5.03C18.78 5.03 16.04 7.09 14.65 9.46L3.6 18.59L3.6 26.82L1.83 28.26C-1.28 30.86 0.14 33.84 1.83 35.3L9.3 41.47C10.64 42.58 12.09 43 13.45 43C15.22 43 16.84 42.27 17.81 41.47L24.53 35.9L33.46 35.9C37.69 35.9 39.83 33.72 40.6 31.58C43.41 30.96 44.96 29.19 45.58 27.46C49.43 26.64 50.88 23.61 50.88 21.49L50.88 15.32L49.41 15.32L50.16 14.72ZM45.9 21.49C45.9 22.42 45.43 23.55 43.41 23.55L40.92 23.55L40.92 25.61C40.92 26.53 40.45 27.67 38.44 27.67L35.95 27.67L35.95 29.72C35.95 30.65 35.48 31.78 33.46 31.78L22.49 31.78L14.32 38.53C13.55 39.13 13.11 38.78 12.83 38.55L5.39 32.42C4.67 31.78 5.09 31.41 5.37 31.18L8.58 28.51L8.58 20.28L13.55 16.16L13.55 19.44C13.55 21.93 15.54 25.61 21.02 25.61C26.49 25.61 28.48 21.93 28.48 19.44L45.9 19.44L45.9 21.49ZM46.62 11.8L42.39 15.32L23.51 15.32L23.51 19.44C23.51 20.36 23.03 21.49 21.02 21.49C19 21.49 18.53 20.36 18.53 19.44L18.53 13.26C18.53 12.32 18.95 9.15 23.51 9.15L31.99 9.15L37.67 4.46C38.44 3.86 38.88 4.21 39.16 4.44L46.6 10.57C47.32 11.21 46.9 11.58 46.62 11.8Z" fill="#000000" fill-opacity="1.000000" fill-rule="nonzero"/>
</svg>
