<svg width="38.489990" height="39.000000" viewBox="0 0 38.49 39" fill="none" xmlns="http://www.w3.org/2000/svg" xmlns:xlink="http://www.w3.org/1999/xlink">
	<desc>
			Created with Pixso.
	</desc>
	<defs/>
	<path id="Vector" d="M11.27 0.13C9.22 0.23 7.82 0.56 6.6 1.05C5.34 1.55 4.26 2.22 3.2 3.3C2.13 4.39 1.47 5.47 0.98 6.76C0.51 8 0.19 9.42 0.1 11.49C0.01 13.57 -0.01 14.24 0 19.53C0.01 24.83 0.03 25.49 0.13 27.57C0.23 29.65 0.55 31.06 1.03 32.3C1.53 33.58 2.19 34.67 3.26 35.75C4.33 36.83 5.4 37.5 6.67 37.99C7.9 38.47 9.3 38.8 11.35 38.89C13.39 38.98 14.05 39 19.28 38.99C24.5 38.98 25.16 38.96 27.21 38.86C29.27 38.76 30.66 38.43 31.88 37.95C33.14 37.44 34.22 36.78 35.28 35.69C36.35 34.6 37.01 33.52 37.5 32.23C37.97 30.99 38.29 29.57 38.38 27.5C38.47 25.42 38.49 24.75 38.48 19.46C38.47 14.16 38.45 13.5 38.35 11.42C38.25 9.34 37.93 7.93 37.45 6.69C36.95 5.41 36.29 4.32 35.22 3.24C34.15 2.16 33.08 1.49 31.81 1C30.59 0.52 29.19 0.19 27.14 0.1C25.09 0.01 24.43 -0.01 19.2 0C13.98 0.01 13.32 0.03 11.27 0.13ZM11.49 35.38C9.62 35.3 8.6 34.98 7.92 34.72C7.02 34.37 6.38 33.94 5.7 33.27C5.03 32.59 4.61 31.94 4.26 31.03C4 30.34 3.68 29.31 3.59 27.41C3.5 25.35 3.48 24.73 3.46 19.53C3.45 14.32 3.47 13.71 3.56 11.65C3.64 9.75 3.96 8.72 4.22 8.03C4.56 7.12 4.98 6.47 5.65 5.78C6.32 5.1 6.96 4.68 7.86 4.32C8.54 4.05 9.56 3.73 11.43 3.64C13.46 3.55 14.07 3.53 19.21 3.51C24.35 3.5 24.96 3.52 26.99 3.61C28.86 3.7 29.88 4.01 30.56 4.28C31.46 4.63 32.1 5.05 32.78 5.73C33.45 6.41 33.87 7.06 34.22 7.97C34.48 8.66 34.8 9.69 34.89 11.59C34.98 13.65 35.01 14.26 35.02 19.47C35.03 24.67 35.01 25.29 34.92 27.35C34.84 29.25 34.53 30.28 34.26 30.97C33.92 31.88 33.5 32.53 32.83 33.21C32.16 33.9 31.52 34.32 30.62 34.68C29.94 34.94 28.92 35.26 27.05 35.35C25.02 35.45 24.41 35.47 19.27 35.48C14.13 35.49 13.52 35.47 11.49 35.38L11.49 35.38ZM27.18 9.07C27.18 9.54 27.32 9.99 27.58 10.37C27.83 10.76 28.19 11.06 28.61 11.23C29.04 11.41 29.5 11.45 29.95 11.36C30.4 11.27 30.81 11.05 31.13 10.72C31.45 10.39 31.67 9.98 31.76 9.52C31.85 9.07 31.8 8.6 31.62 8.17C31.45 7.74 31.15 7.38 30.77 7.12C30.39 6.86 29.95 6.73 29.49 6.73C28.88 6.73 28.29 6.98 27.86 7.42C27.42 7.86 27.18 8.45 27.18 9.07ZM9.36 19.51C9.37 25.04 13.8 29.52 19.26 29.51C24.72 29.5 29.13 25.01 29.12 19.48C29.11 13.95 24.68 9.47 19.22 9.48C13.76 9.49 9.35 13.99 9.36 19.51ZM12.83 19.51C12.82 18.22 13.2 16.96 13.9 15.89C14.6 14.82 15.6 13.99 16.77 13.49C17.94 13 19.23 12.87 20.48 13.12C21.72 13.37 22.87 13.98 23.77 14.89C24.67 15.8 25.28 16.95 25.53 18.21C25.78 19.47 25.66 20.78 25.17 21.97C24.69 23.16 23.87 24.18 22.81 24.89C21.76 25.61 20.52 25.99 19.25 25.99C18.41 26 17.58 25.83 16.8 25.51C16.02 25.18 15.31 24.7 14.71 24.1C14.12 23.5 13.64 22.78 13.32 21.99C12.99 21.21 12.83 20.36 12.83 19.51Z" fill="#000000" fill-opacity="1.000000" fill-rule="nonzero"/>
</svg>
