<svg width="38.489990" height="39.000000" viewBox="0 0 38.49 39" fill="none" xmlns="http://www.w3.org/2000/svg" xmlns:xlink="http://www.w3.org/1999/xlink">
	<desc>
			Created with Pixso.
	</desc>
	<defs/>
	<path id="Path 2520" d="M32.79 33.23L27.09 33.23L27.09 24.18C27.09 22.02 27.05 19.24 24.12 19.24C21.15 19.24 20.7 21.59 20.7 24.02L20.7 33.23L14.99 33.23L14.99 14.62L20.47 14.62L20.47 17.16L20.54 17.16C21.09 16.21 21.88 15.43 22.84 14.9C23.79 14.37 24.86 14.11 25.95 14.15C31.73 14.15 32.79 18 32.79 23.02L32.79 33.23ZM8.56 12.07C7.9 12.07 7.26 11.87 6.72 11.51C6.18 11.14 5.75 10.61 5.5 10C5.25 9.39 5.18 8.71 5.31 8.06C5.44 7.41 5.75 6.82 6.22 6.35C6.68 5.88 7.27 5.56 7.91 5.43C8.55 5.3 9.22 5.37 9.82 5.62C10.43 5.87 10.95 6.3 11.31 6.85C11.67 7.41 11.87 8.05 11.87 8.72C11.87 9.16 11.78 9.59 11.62 10C11.45 10.41 11.21 10.78 10.9 11.09C10.59 11.4 10.23 11.65 9.82 11.82C9.42 11.98 8.99 12.07 8.56 12.07ZM11.41 33.23L5.7 33.23L5.7 14.62L11.41 14.62L11.41 33.23ZM35.63 0L2.84 0C2.09 -0.01 1.37 0.28 0.84 0.81C0.31 1.33 0 2.05 0 2.81L0 36.18C0 36.94 0.31 37.66 0.84 38.18C1.37 38.71 2.09 39 2.84 39L35.63 39C36.38 39 37.1 38.71 37.63 38.19C38.17 37.66 38.47 36.94 38.49 36.18L38.49 2.81C38.47 2.05 38.17 1.33 37.63 0.8C37.1 0.28 36.38 -0.01 35.63 0L35.63 0Z" fill="#000000" fill-opacity="1.000000" fill-rule="nonzero"/>
</svg>
