<svg width="38.489990" height="39.000000" viewBox="0 0 38.49 39" fill="none" xmlns="http://www.w3.org/2000/svg" xmlns:xlink="http://www.w3.org/1999/xlink">
	<desc>
			Created with Pixso.
	</desc>
	<defs/>
	<path id="path14" d="M38.49 19.5C38.49 8.73 29.87 0 19.24 0C8.61 0 0 8.73 0 19.5C0 29.23 7.03 37.3 16.23 38.76L16.23 25.13L11.35 25.13L11.35 19.5L16.23 19.5L16.23 15.2C16.23 10.31 19.11 7.61 23.5 7.61C25.61 7.61 27.81 7.99 27.81 7.99L27.81 12.79L25.38 12.79C22.99 12.79 22.25 14.3 22.25 15.84L22.25 19.5L27.58 19.5L26.73 25.13L22.25 25.13L22.25 38.76C31.45 37.3 38.49 29.23 38.49 19.5Z" fill="#100F0D" fill-opacity="1.000000" fill-rule="nonzero"/>
	<path id="path16" d="M26.73 25.13L27.58 19.5L22.25 19.5L22.25 15.84C22.25 14.29 22.99 12.79 25.38 12.79L27.81 12.79L27.81 7.99C27.81 7.99 25.61 7.61 23.5 7.61C19.11 7.61 16.23 10.31 16.23 15.2L16.23 19.5L11.35 19.5L11.35 25.13L16.23 25.13L16.23 38.76C17.21 38.91 18.22 39 19.24 39C20.26 39 21.27 38.91 22.25 38.76L22.25 25.13L26.73 25.13Z" fill="#FFFFFF" fill-opacity="1.000000" fill-rule="nonzero"/>
</svg>
