<svg width="29.000000" height="29.000000" viewBox="0 0 29 29" fill="none" xmlns="http://www.w3.org/2000/svg" xmlns:xlink="http://www.w3.org/1999/xlink">
	<desc>
			Created with Pixso.
	</desc>
	<defs/>
	<rect id="Frame 47" rx="4.500000" width="28.000000" height="28.000000" transform="translate(0.500000 0.500000)" fill="#000000" fill-opacity="1.000000"/>
	<path id="Vector" d="M21.58 12.2L7.74 7.03C7.64 6.99 7.53 6.99 7.43 7.01C7.33 7.03 7.23 7.08 7.16 7.16C7.08 7.23 7.03 7.32 7.01 7.43C6.99 7.53 6.99 7.64 7.03 7.74L12.21 21.64C12.25 21.74 12.33 21.84 12.42 21.9C12.52 21.96 12.63 22 12.74 22C12.86 21.99 12.97 21.95 13.06 21.88C13.15 21.81 13.22 21.72 13.26 21.61L14.74 16.78L19.76 21.69C19.87 21.79 20.01 21.85 20.15 21.85C20.3 21.85 20.44 21.79 20.54 21.69L21.83 20.39C21.94 20.29 22 20.15 22 20C22 19.86 21.94 19.72 21.83 19.61L16.83 14.72L21.58 13.25C21.69 13.21 21.78 13.14 21.85 13.04C21.92 12.95 21.95 12.84 21.95 12.72C21.95 12.61 21.92 12.5 21.85 12.4C21.78 12.31 21.69 12.24 21.58 12.2Z" fill="#FFFFFF" fill-opacity="1.000000" fill-rule="nonzero"/>
</svg>
